<svg width="26" height="23" viewBox="0 0 26 23" fill="none" xmlns="http://www.w3.org/2000/svg">
<path d="M11.252 13.7515C12.356 12.2875 16.88 13.0315 16.88 9.69548C16.88 7.63148 14.852 6.99548 12.848 6.99548C10.52 6.99548 8.72 7.84748 8.6 9.80348H11.24C11.348 8.98748 11.948 8.71148 12.812 8.71148C13.664 8.71148 14.264 8.99948 14.264 9.70748C14.264 11.6155 8.408 10.6195 8.24 15.5635H16.964V13.7515H11.252Z" fill="#E50012"/>
<path d="M24.6655 12.7685C24.6286 12.7685 24.5916 12.6585 24.5916 12.6218C24.6286 12.4018 24.6286 12.2184 24.6286 12.035L24.7395 11.4849C24.7764 11.2282 24.8504 11.3382 24.9243 11.2648C25.0722 11.0081 25.0722 10.6414 24.8873 10.2379C24.8134 10.0179 24.7764 9.76116 24.8504 9.57779C24.8504 9.54111 24.8873 9.50444 24.8873 9.46776C25.0352 8.95432 25.0352 8.58757 24.5916 7.85407C24.3328 7.41397 24.0001 6.82717 23.6304 6.57044C23.5565 6.53377 23.4825 6.42374 23.4456 6.35039C23.1128 5.87362 22.7432 5.58022 22.3365 5.39684C21.9668 5.21347 21.6711 5.06677 21.3753 4.70002C21.3384 4.66334 21.1905 4.58999 21.1165 4.55332C20.7838 4.03987 20.4511 3.56309 20.0814 3.12299C19.8226 2.82959 19.6008 2.49952 19.2311 2.27947C18.8615 2.02274 18.5287 1.76602 18.1221 1.58264C17.3827 1.17922 16.5694 0.849141 15.7931 0.482391C15.7191 0.445716 15.6452 0.445717 15.5712 0.409041C14.7579 0.225667 13.9446 0.0422915 13.1313 0.00561654C12.0592 -0.0310585 10.9871 0.115642 9.98898 0.335692C8.84295 0.592416 7.77086 0.995841 6.77271 1.50929C5.77455 2.02274 4.88731 2.64622 4.03703 3.41639C3.29765 4.07654 2.63222 4.84672 2.04072 5.69024C1.67103 6.24037 1.33832 6.79049 1.07954 7.37729C0.746818 8.07411 0.377132 8.77094 0.303194 9.61446C0.303194 9.76116 0.229257 9.94454 0.192288 10.1279C-0.0295235 11.0448 -0.0664921 12.0717 0.118351 13.0986C0.192288 13.4653 0.266226 13.8688 0.377132 14.2355C0.709849 15.4091 1.19044 16.4727 1.89285 17.3896C2.78009 18.5632 3.81522 19.5534 4.96124 20.3602C6.40302 21.3505 7.99267 22.0473 9.65626 22.4874C10.6174 22.7441 11.6156 22.8541 12.6138 22.8908C13.2052 22.8908 13.8337 22.8908 14.4252 22.7808C14.7949 22.7441 15.2016 22.6341 15.5343 22.6341C16.0518 22.5974 16.5324 22.4874 17.013 22.3407C17.5306 22.194 18.0112 21.9373 18.233 21.6072C18.27 21.4605 18.4178 21.3505 18.6396 21.2771C18.9354 21.1304 19.1942 20.9837 19.4899 20.8737C19.7857 20.7637 19.9705 20.5069 20.2663 20.3602C20.4881 20.2502 20.7838 20.0668 20.8578 19.8468C20.8947 19.7734 21.0056 19.7001 21.1165 19.6267C21.3753 19.5167 21.4493 19.4067 21.4493 19.2233C21.4493 19.1133 21.5602 19.0033 21.6711 19.0033C21.8559 19.0033 22.0408 18.8932 22.2995 18.6365C22.5953 18.3431 22.8171 18.013 23.0759 17.683C23.2607 17.4629 23.2607 17.4629 23.4825 17.4629C23.5195 17.4629 23.5195 17.4996 23.5565 17.4629C23.8152 17.3529 24.0001 17.1695 24.2219 16.9128C24.4067 16.6927 24.4067 16.5094 24.4807 16.2893L24.5177 16.216C24.7025 15.7759 24.6655 15.7025 24.4437 15.7025C24.2958 15.7025 24.148 15.7025 24.0001 15.6658C23.9631 15.6658 23.9262 15.5925 23.9631 15.4825C24.0371 15.1891 24.1849 14.969 24.3328 14.749C24.4807 14.5289 24.5916 14.5656 24.6655 14.6023C24.7395 14.6389 24.7764 14.6389 24.8504 14.5289C25.0722 13.8688 25.0722 13.3553 24.8504 13.0619C24.7764 12.9886 24.7764 12.8052 24.6655 12.7685ZM19.0833 8.91764C19.1942 8.84429 19.3051 8.77094 19.4529 8.77094C19.5269 8.77094 19.6008 8.80762 19.6008 8.88097C19.6008 8.91764 19.6008 8.91764 19.6008 8.95432C19.4529 8.99099 19.3051 9.13769 19.1202 9.02767C19.0833 9.02767 19.0833 8.99099 19.0833 8.99099C19.0833 8.99099 19.0463 8.91764 19.0833 8.91764ZM23.0019 10.1279C22.928 10.2379 22.928 10.348 22.7062 10.3846C22.6323 10.3846 22.5953 10.458 22.5953 10.5313C22.5953 10.6414 22.5583 10.7514 22.7062 10.8614C22.8171 10.9348 22.8171 11.0815 22.7801 11.2282C22.7062 11.3749 22.5953 11.5216 22.4844 11.6316C22.3365 11.7783 22.3365 11.8516 22.5213 11.9983C22.8541 12.2184 22.8171 12.5485 22.7432 12.8785C22.7062 12.9886 22.6692 13.1353 22.5953 13.2086C22.4844 13.3553 22.4104 13.4653 22.5583 13.612C22.5583 13.612 22.5583 13.6854 22.5583 13.7221C22.3365 14.0888 22.1517 14.4922 21.782 14.6023C21.5602 14.7123 21.4123 14.8223 21.3753 15.0424C21.2644 15.3724 21.1535 15.6658 20.9317 15.9592C20.8947 16.0326 20.9317 16.1793 20.8208 16.2526C20.6729 16.2893 20.599 16.1793 20.525 16.1059C20.4511 16.0693 20.3772 16.0693 20.3032 16.0693C20.0444 16.1059 19.8596 16.1793 19.6748 16.3993C19.4899 16.6561 19.4529 16.6194 19.6378 16.8394C19.7117 16.9495 19.7487 17.0228 19.7117 17.1328C19.7117 17.2062 19.6378 17.3162 19.5639 17.3162C19.1942 17.3162 19.0093 17.5729 18.8615 17.793C18.6766 18.1597 18.3069 18.3798 18.0481 18.6365C17.9372 18.7465 17.7894 18.8566 17.6415 18.8932C17.4936 18.8932 17.4197 18.8199 17.3457 18.7465C17.1609 18.5998 16.976 18.6365 16.7542 18.6732C16.5694 18.7099 16.6803 18.8932 16.6064 18.9666C16.5324 19.0399 16.4585 19.1133 16.3846 19.1866C16.2367 19.26 16.1258 19.26 15.9779 19.2233C15.9409 19.1866 15.904 19.15 15.83 19.1133C15.5712 18.9299 15.5343 18.9666 15.3125 19.15C15.2385 19.1866 15.1646 19.26 15.1276 19.3333C14.9428 19.5167 14.684 19.5901 14.4252 19.48C14.2773 19.4434 14.0925 19.48 13.9077 19.4067C13.6119 19.26 13.538 19.2967 13.2792 19.48C12.9095 19.7734 12.4289 19.8101 11.9113 19.6267C11.5417 19.5167 11.135 19.4434 10.6914 19.4434C10.4326 19.48 10.1738 19.4434 9.87807 19.4067C9.7302 19.4067 9.58232 19.37 9.47142 19.26C9.28657 19.0766 9.02779 19.0399 8.69508 19.0399C8.39933 19.0399 8.06661 19.0033 7.77086 18.8566C7.69692 18.7832 7.58602 18.7465 7.51208 18.7465C7.2533 18.7465 7.06846 18.5998 6.84664 18.5265C5.99636 18.1231 5.25699 17.5363 4.48065 17.0962C4.22187 16.8028 3.81521 16.6194 3.81521 16.1793C3.81521 16.1059 3.70431 16.0693 3.63037 16.0326C3.4825 15.9592 3.22372 15.8859 3.22372 15.6658C3.18675 15.2257 3.0019 14.9323 2.78009 14.6389C2.33647 14.0521 2.1886 13.3186 1.96678 12.6952C1.92981 12.5485 1.92981 12.4018 1.92981 12.2917C1.92981 11.9617 1.96678 11.5949 1.96678 11.2282C1.96678 10.8981 2.00375 10.4947 2.2995 10.2013C2.37344 10.1279 2.41041 10.0179 2.41041 9.87119C2.41041 9.65114 2.48434 9.39441 2.59525 9.17437C2.66919 9.02767 2.70616 8.91764 2.70616 8.77094C2.70616 8.58757 2.78009 8.51422 2.891 8.44087C3.26069 8.22081 3.40856 7.92741 3.51947 7.52399C3.55643 7.37729 3.51947 7.19392 3.70431 7.04722C4.03703 7.04722 4.22187 6.71714 4.44368 6.46042C4.70246 6.05699 5.03518 5.72692 5.33093 5.39684C5.92243 4.70002 6.62483 4.14989 7.3642 3.63644C7.88177 3.23302 8.47326 2.93962 9.10173 2.60954C9.61929 2.35282 10.1369 2.09609 10.6914 1.98607C11.4308 1.83937 12.1332 1.58264 12.9095 1.65599H13.0574C13.9816 1.47262 14.9428 1.65599 15.9409 1.80269C16.6803 1.91272 17.4566 2.24279 18.159 2.57287C19.1942 3.01297 20.1184 3.70979 21.0426 4.36994V4.40662C21.0426 4.47997 20.9687 4.55332 20.8578 4.55332C20.7099 4.55332 20.6359 4.47997 20.599 4.40662C20.4881 4.29659 20.4511 4.18657 20.3772 4.11322C20.3032 4.03987 20.1554 4.00319 20.1184 4.03987C19.9335 4.22324 19.7857 4.40662 19.6008 4.58999C19.7857 4.84672 19.5269 4.84672 19.3051 4.77337C19.1202 4.73669 18.9724 4.73669 18.7875 4.77337C18.6027 4.81004 18.6027 4.84672 18.7505 4.99342C18.8245 5.10344 18.7136 5.25014 18.5657 5.25014C18.4548 5.25014 18.3439 5.21347 18.27 5.14012C18.0481 5.03009 17.9003 5.03009 17.6785 5.14012C17.013 5.47019 16.2367 5.65357 15.4234 5.80027C15.1646 5.87362 15.0167 5.94697 15.0537 6.02032C15.1646 6.13034 15.3125 6.13034 15.4603 6.13034C15.6821 6.13034 15.904 6.13034 16.0888 6.09367C16.7542 5.98364 17.4197 6.13034 18.0851 6.16702C18.27 6.20369 18.4548 6.31372 18.6027 6.27704C19.0463 6.24037 19.342 6.42374 19.6378 6.64379C19.8966 6.86384 20.1923 7.08389 20.562 6.90052C20.599 6.90052 20.6359 6.90052 20.7099 6.90052C20.9687 6.93719 21.0426 7.01054 20.9687 7.19392L20.9317 7.41397C20.8578 7.67069 20.8578 7.67069 21.1535 7.70737C21.4493 7.74404 21.782 7.85407 21.8189 8.18414C21.8929 8.58757 22.1147 8.77094 22.4104 8.88097C22.5583 8.91764 22.6692 8.99099 22.7432 9.13769C22.8171 9.24771 22.891 9.35774 23.0019 9.50444C22.8541 9.50444 22.8541 9.28439 22.6692 9.43109C22.5583 9.54111 22.6692 9.57779 22.6692 9.65114C22.7062 9.76117 22.7801 9.79784 22.891 9.87119C23.0019 9.90787 23.0389 10.0179 23.0019 10.1279ZM16.6064 7.12057C16.5694 7.19392 16.4585 7.23059 16.3846 7.23059C16.3476 7.19392 16.3106 7.19392 16.3106 7.15724C16.2367 7.04722 16.3476 6.93719 16.5694 6.93719C16.6064 6.93719 16.6433 6.97387 16.6433 6.97387C16.7173 7.04722 16.6433 7.08389 16.6064 7.12057ZM19.8966 10.458C19.8596 10.4947 19.8596 10.4947 19.8226 10.458C19.7857 10.4213 19.7857 10.3846 19.7487 10.348C19.7487 10.3113 19.7487 10.2746 19.7857 10.2379C19.7857 10.2379 19.8226 10.2379 19.8226 10.2746C19.8966 10.3113 19.8966 10.3846 19.9335 10.4213L19.8966 10.458Z" fill="#E50012"/>
</svg>
