<svg width="200" height="33" viewBox="0 0 200 33" fill="none" xmlns="http://www.w3.org/2000/svg">
<g clip-path="url(#clip0)">
<path d="M79.6909 26.6639C79.7764 26.6761 79.8456 26.6761 79.9237 26.7099C79.3667 26.5641 78.7493 26.6562 78.1776 26.5334C77.6235 26.4152 76.9693 26.188 76.4859 25.8641C75.7551 25.376 75.3705 24.0529 75.092 23.2578C74.7604 22.3138 74.3066 21.4665 73.7481 20.6637C73.5875 20.4335 73.5005 20.1756 73.2353 20.2738C73.0776 20.3322 72.8684 20.696 72.7711 20.8402C72.4057 21.3867 72.1169 21.9884 71.7721 22.5425C71.1768 23.5034 70.3796 24.3461 69.8461 25.3576C69.6266 25.7736 69.4925 26.0407 69.1403 26.3661C68.7955 26.6853 68.4699 26.9309 68.1737 27.2901C67.1525 28.5242 65.0527 28.6532 63.7132 28.0269C62.502 27.4605 61.8625 25.4113 61.4941 24.2632C61.3379 23.7766 61.195 23.3146 60.9695 22.8372C60.5525 21.9546 60.1871 21.0336 59.9984 20.062C59.8128 19.1057 59.6448 18.0957 59.6374 17.0366C59.6315 16.1018 59.3751 15.0166 59.1954 14.1049C59.0215 13.2223 59.0318 12.3197 58.908 11.4264C58.796 10.6144 58.5028 9.7548 58.5883 8.90443C58.6722 8.07555 58.9434 7.35566 58.7179 6.48841C58.5558 5.86215 58.0342 4.92583 57.5789 4.47148C57.9988 4.3364 59.2631 4.23049 59.5858 4.51446C60.0117 4.88899 59.9513 5.96806 60.5643 6.06783C61.0977 6.15533 60.915 5.58279 60.9327 5.19598C61.2009 5.47381 61.3453 5.83606 61.6238 6.10314C61.9789 5.90052 61.9833 5.13151 62.1483 4.7708C62.1719 4.71861 62.8424 5.56897 62.9102 5.6933C63.1769 6.18296 63.4524 6.80461 63.5895 7.35106C63.7884 8.14616 63.7928 8.97657 63.7928 9.84075C63.7928 10.8032 63.5954 11.7487 63.6307 12.6881C63.6602 13.4725 63.7972 14.3336 63.952 15.1041C64.1406 16.0466 64.5163 16.9952 65.0026 17.7934C65.2015 17.5293 65.4623 17.4465 65.6598 17.1717C65.8278 16.9384 65.8145 16.6943 65.9295 16.4472C66.1829 15.9084 66.7325 15.5661 67.2954 15.6137C67.2719 15.9192 66.9934 16.2124 66.8475 16.481C66.6736 16.8018 66.5926 17.1563 66.4143 17.4741C66.0857 18.0604 65.5979 18.4334 65.4034 19.0965C65.2958 19.4619 65.1102 19.9193 65.1264 20.3061C65.1161 20.2662 65.1013 20.2263 65.0836 20.1894C65.1779 20.0236 65.6775 19.7566 65.8808 19.557C66.1387 19.3022 66.3435 19.0121 66.5763 18.7189C67.0214 18.1587 67.4428 17.6491 67.851 17.0612C68.7012 15.8363 69.5794 14.6344 70.3383 13.3834C70.7288 12.7403 71.2873 11.7134 71.0883 10.9505C70.4724 10.8584 70.0333 11.3158 69.7121 11.8147C69.5352 12.0895 69.4542 12.4302 69.2611 12.6835C69.0711 12.9337 68.7262 13.0826 68.6305 13.4126C68.8515 12.7526 69.2729 12.1478 69.6015 11.5415C69.9994 10.8078 70.2352 10.051 71.1664 10.1861C71.7161 10.2659 72.2731 10.3104 72.8286 10.2276C73.2854 10.16 73.7673 9.93438 74.2196 9.93285C74.6499 9.93131 74.8533 10.1247 75.0758 10.5008C75.3174 10.9106 75.562 11.3527 75.7948 11.7825C76.0218 12.2 76.15 13.1486 76.6024 13.3374C76.7792 13.4111 76.9855 13.2729 77.1446 13.4018C77.2522 13.4893 77.3465 13.9115 77.3951 14.045C77.3244 14.0511 77.5381 13.9544 77.4703 13.9237C77.6014 13.3834 77.8313 13.0427 78.1054 12.5684C78.2321 12.3504 78.3411 12.1156 78.4679 11.8976C78.658 11.5676 78.7287 11.5261 79.044 11.4033C79.3476 11.2851 79.4301 11.3097 79.5789 10.9413C79.6762 10.7019 79.7557 10.4348 79.8515 10.1861C80.0637 9.63353 80.2951 9.11779 80.466 8.55446C80.6399 7.98039 80.9243 7.43701 81.1497 6.87061C81.5461 6.90285 82.2357 7.00876 82.5835 7.19756C81.3457 7.84531 80.6959 9.23445 80.0652 10.4378C79.7572 11.0257 79.3903 11.586 79.075 12.157C78.7272 12.7863 78.5784 13.5216 78.2483 14.1785C78.0243 14.6252 77.9698 14.8723 77.9462 15.385C77.9271 15.8056 78.0214 16.108 78.0641 16.4917C78.0332 16.4303 77.9978 16.3735 77.9551 16.3213C78.8215 16.0589 79.3785 14.9061 79.6806 14.1678C80.0622 13.2345 80.4218 12.246 80.9095 11.3726C81.5962 10.1416 82.9754 6.33952 84.8616 7.86373C85.2978 8.21677 85.5763 8.69721 85.8518 9.18533C86.0743 9.58288 86.3499 10.5653 86.1863 10.9843C86.0566 11.3143 86.2128 12.0833 86.1377 12.4886C86.0537 12.9322 85.8857 13.385 85.703 13.8178C85.3523 14.6498 85.1475 15.5523 84.8247 16.415C83.9848 18.656 82.915 20.7574 81.9926 22.9186C81.6669 23.6799 81.2367 24.3722 80.8727 25.1166C80.6222 25.6293 79.8471 26.1926 79.6909 26.6639Z" fill="white"/>
<path d="M67.4104 15.4432C67.4207 15.2099 67.5415 14.8676 67.6211 14.662C67.6697 14.5376 67.6727 14.5407 67.7935 14.5929C67.8731 14.6282 67.9703 14.6988 68.0278 14.7602C67.7817 14.9551 67.5783 15.233 67.4104 15.4432Z" fill="white"/>
<path d="M107.399 13.2358C107.021 12.7339 106.294 12.1583 105.745 11.8789C105.154 11.5796 104.641 11.4768 104.349 10.7861C104.102 10.1997 104.034 9.48595 103.807 8.88578C103.33 7.62097 102.817 5.51502 101.547 4.88875C100.898 4.56948 100.422 4.79973 99.7797 4.80894C99.18 4.81815 98.928 4.21798 98.4123 4.14277C98.0955 4.09672 97.7816 4.40831 97.5709 4.60018C97.0876 5.04225 96.4996 5.47357 96.0531 5.94634C95.449 6.58642 95.0099 7.46901 94.4897 8.1797C93.6056 9.38617 92.776 10.7354 91.7165 11.7853C91.4631 12.0355 91.1728 12.2136 90.9488 12.4883C90.6172 12.8966 90.5421 13.4185 90.2621 13.8928C89.9129 14.4838 89.7626 15.0901 89.4531 15.6872C89.0774 16.4132 88.4482 16.9781 88.0091 17.6596C87.707 18.1293 87.15 18.7632 86.9673 19.061C86.59 18.9689 86.092 19.0119 85.9535 19.3158C85.7987 19.6566 85.7663 20.1662 85.6263 20.5499C85.479 20.9551 85.2712 21.4218 85.3699 21.8377C85.4937 22.3519 85.896 22.223 86.1951 22.5315C86.5164 22.8631 86.4795 23.5385 86.3027 23.9068C86.6947 24.2553 87.063 24.6329 87.4697 24.9491C87.7939 25.2008 87.8322 25.1931 87.6878 25.6106C87.6038 25.8516 87.483 26.088 87.399 26.3137C88.0827 26.6498 88.3966 27.0489 88.8873 27.5861C89.6491 27.0167 89.9969 25.8087 90.5038 25.0228C91.1521 24.0158 91.7253 22.969 92.3693 21.9559C92.6728 21.4801 93.0014 21.0165 93.2888 20.5361C93.4317 20.2966 93.554 19.7701 93.8119 19.6842C94.1095 19.5844 94.6371 19.8975 94.9023 19.9789C95.5109 20.1677 96.0296 20.0326 96.6072 19.8101C98.1515 19.216 99.6958 19.239 101.289 19.2191C101.442 19.5169 101.39 19.8761 101.468 20.1969C101.548 20.5223 101.688 20.7602 101.862 21.0365C102.263 21.6781 102.854 21.8654 103.489 22.2061C104.218 22.596 104.494 22.3136 105.029 21.6535C105.558 21.0012 105.814 20.1938 105.917 19.3787C106.02 18.5637 105.787 17.7762 105.796 16.952C105.807 16.0156 106.196 15.7133 106.884 15.1039C107.582 14.4884 108.008 14.0432 107.399 13.2358ZM90.3314 16.3886C90.1089 16.9013 89.6594 17.3372 89.2866 17.7455C88.9079 18.16 88.4865 18.3687 88.6324 19.0011C88.46 19.0288 88.292 19.0395 88.1225 19.0687C88.2257 19.0057 88.1829 18.7832 88.2419 18.6251C88.3111 18.4424 88.4055 18.3933 88.5337 18.2797C88.9639 17.9067 89.1776 17.4293 89.4531 16.9243C89.7567 16.3687 89.7891 15.4631 90.5937 15.5352C90.4802 15.8054 90.4507 16.1154 90.3314 16.3886ZM92.1262 13.813C91.9464 14.4607 90.937 14.7063 90.7558 15.2865C90.7263 14.8675 90.8162 14.5298 91.0284 14.1522C91.1389 13.9542 91.3113 13.4154 91.4969 13.331C91.8049 13.1883 92.2072 13.5152 92.1262 13.813ZM98.29 5.86038C97.7536 6.20882 97.4501 6.61097 96.9903 7.06532C96.1976 7.84815 95.4225 8.82438 94.8448 9.78833C94.2554 10.7707 93.722 11.5996 92.7274 12.1859C92.7259 12.1997 92.7215 12.2105 92.7215 12.2243C92.689 12.2274 92.6596 12.2182 92.6625 12.2274C92.6861 12.2151 92.7053 12.1997 92.7274 12.1859C92.745 12.0478 92.8231 11.9495 92.8821 11.8191C93.0398 11.4706 93.2755 11.2481 93.4494 10.9027C93.6439 10.5174 93.8222 10.06 94.086 9.73921C94.5457 9.17895 94.9539 8.4606 95.3856 7.87731C95.8645 7.2311 96.3759 6.62018 96.9741 6.09676C97.2556 5.85117 97.5311 5.60711 97.8081 5.36306C97.985 5.20649 98.2473 4.83503 98.4874 4.85192C98.7026 4.86727 98.847 5.19268 98.8897 5.39529C98.9605 5.74526 98.5317 5.70382 98.29 5.86038Z" fill="white"/>
<path d="M109.334 12.6374C109.554 12.8385 109.452 13.0687 109.455 13.3374C109.47 14.507 110.775 15.4587 111.506 16.2308C111.947 16.6974 112.458 17.0965 112.928 17.5217C113.327 17.8839 113.747 18.0174 113.691 18.6575C113.644 19.1948 113.379 19.7872 113.155 20.2708C112.869 20.8878 112.61 21.5187 112.308 22.1235C111.625 23.4865 111.175 25.2456 110.152 26.3707C109.651 26.9217 109.168 27.3899 108.759 28.0269C108.353 28.6608 108.213 29.5281 108.245 30.2817C108.272 30.9034 108.602 31.2933 109.001 31.72C109.313 32.0546 109.685 32.5934 110.068 32.8328C110.653 33.1997 111.614 32.8374 112.269 32.8405C112.626 32.842 113.008 32.908 113.261 32.6747C113.394 32.5535 113.495 32.3463 113.602 32.1943C114.161 31.3869 114.767 30.6041 115.265 29.7583C115.731 28.9693 116.171 28.1604 116.636 27.3623C116.833 27.023 117.109 26.7222 117.346 26.4014C117.53 26.1527 117.667 25.551 117.898 25.3699C118.162 25.1611 118.349 24.6822 118.504 24.3921C118.732 23.9669 118.92 23.5279 119.18 23.1273C119.823 22.1357 120.414 21.115 121.04 20.1111C121.548 19.2961 121.987 18.4917 122.528 17.7028C123.032 16.966 123.517 16.1893 124.022 15.4694C124.501 14.7864 124.999 14.1141 125.492 13.4356C126.091 12.6083 126.55 11.7395 127.067 10.863C127.528 10.0833 127.843 9.19145 128.349 8.44546C128.82 7.74859 129.231 6.998 129.638 6.25815C130.16 5.30648 130.4 4.16908 130.845 3.1775C130.543 3.19285 130.223 3.25885 129.924 3.18057C130.151 2.68785 130.236 2.05391 130.176 1.53817C129.722 1.52128 129.423 1.74999 128.974 1.44607C128.549 1.15903 128.722 0.85818 129.003 0.540444C128.788 0.357785 128.524 0.0600035 128.254 -0.00292969C128.163 0.805992 127.224 1.45221 126.581 1.79143C126.311 1.93418 126.022 2.03089 125.755 2.17671C125.383 2.38086 125.159 2.72315 124.892 3.0547C124.547 3.48142 124.484 3.99563 124.061 4.36095C123.804 4.58198 123.557 4.71706 123.346 4.99028C123.079 5.33564 122.786 5.65799 122.509 5.99107C121.678 6.98572 121.021 8.08321 120.196 9.06252C119.678 9.67496 119.267 10.3181 118.869 11.0288C118.615 11.4847 118.424 11.9805 118.159 12.4333C117.863 12.9383 117.489 13.3896 117.145 13.8531C116.325 13.5876 115.482 13.3097 114.748 12.7694C113.515 11.8607 112.672 10.3887 111.708 9.19145C111.53 8.96888 111.369 8.71562 111.119 8.57747C110.842 8.42551 110.46 8.36718 110.174 8.28583C109.844 8.1922 109.567 8.14615 109.25 7.98651C109.003 7.86065 108.596 7.55059 108.317 7.59663C108.292 7.97884 108.493 8.25359 108.525 8.60049C108.426 8.32727 108.002 8.11545 107.799 7.89135C107.479 7.53831 107.155 7.57054 106.683 7.59663C106.801 8.29504 107.19 9.03182 107.579 9.64119C107.97 10.2521 108.214 10.952 108.622 11.5537C108.849 11.8884 109.076 12.2414 109.278 12.5714C109.269 12.5346 109.371 12.6605 109.334 12.6374Z" fill="white"/>
<path d="M194.788 10.6161C194.849 10.6483 194.909 10.6759 194.972 10.7005C194.704 10.7128 193.948 10.4886 194.082 10.1095C194.19 9.80559 195.071 9.70275 195.351 9.60912C195.971 9.40497 196.181 9.03658 196.667 8.63442C197.023 8.33971 197.474 8.27678 197.849 8.03886C198.257 7.77945 198.345 7.38804 198.609 6.99356C198.899 6.5607 199.212 6.33199 199.649 6.08793C200.078 5.84695 200.144 5.70113 199.664 5.54302C199.206 5.3926 199.281 5.31892 199.138 4.86304C198.92 4.17078 198.28 3.41251 199.387 3.20068C199.086 3.20068 198.799 3.20836 198.503 3.24059C196.998 3.4079 195.6 4.02802 194.11 4.31199C192.37 4.64354 190.659 5.12705 188.944 5.54456C188.274 5.70726 187.575 5.87304 186.883 5.97281C186.256 6.06337 185.618 6.07105 184.992 6.16622C183.86 6.33813 182.67 6.41027 181.532 6.64512C179.547 7.05496 177.415 7.33278 175.486 7.99128C174.662 8.27217 173.842 8.63135 173.003 8.77871C172.2 8.91993 171.412 9.04886 170.626 9.17473C169.775 9.31134 168.893 9.20543 168.077 9.494C167.497 9.69815 166.58 10.1172 166.503 10.8509C166.561 10.4104 168.222 10.8417 167.401 11.4741C167.106 11.7013 166.951 11.7043 167.252 12.1218C167.533 12.5117 167.631 12.4534 167.983 12.2155C168.288 12.0098 168.475 11.9822 168.863 11.9806C169.11 11.9806 169.748 11.9776 169.621 12.3812C169.446 12.9461 168.176 12.7374 168.04 13.4864C167.953 13.9638 168.56 13.8978 168.865 13.9899C169.218 14.0973 169.555 14.2769 169.854 14.4964C170.186 14.7405 170.228 14.9124 170.668 14.8387C171.121 14.7635 171.78 14.6714 172.162 14.4089C172.458 14.2048 172.624 13.8272 172.986 14.2002C173.232 14.4534 173.263 14.9062 173.56 15.1457C174.083 15.5663 174.869 15.1534 175.454 15.0244C175.881 14.9308 176.314 14.8372 176.718 14.6714C176.926 14.5854 177.061 14.4504 177.276 14.5164C177.741 14.6591 177.677 15.0582 177.574 15.3836C177.43 15.838 177.293 16.2938 177.153 16.7421C177.03 17.135 176.749 17.4712 176.64 17.8718C176.549 18.211 176.501 18.5564 176.395 18.8925C176.136 19.7153 175.657 20.5257 175.572 21.393C175.548 21.6294 175.538 21.9517 175.592 22.1697C174.559 22.0484 174.913 23.2856 174.901 23.9195C175.149 23.6386 175.373 23.3393 175.53 22.977C175.857 23.6969 175.62 24.8297 175.647 25.6356C176.139 25.6724 176.829 25.3931 177.287 25.2104C177.472 25.1352 178.277 24.7069 177.999 25.3163C178.388 25.0876 178.385 24.7192 178.463 24.3048C178.57 23.7276 178.713 23.1397 178.896 22.578C178.971 22.3446 179.171 21.373 179.575 21.7798C179.861 22.0668 179.35 22.8005 179.32 23.1382C179.734 23.2303 179.898 22.7514 180.033 22.4429C180.364 21.6892 180.735 20.9478 180.984 20.1604C181.251 19.3192 181.491 18.4704 181.771 17.6369C181.979 17.0183 182.194 16.3015 182.485 15.729C182.739 15.2301 183.188 14.4442 183.622 14.0758C184.182 13.6015 185.167 13.3713 185.83 13.1549C187.425 12.6314 189.172 12.2938 190.817 11.9898C191.714 11.8241 192.557 11.6675 193.443 11.4403C193.876 11.3298 194.571 11.4173 194.837 10.963C194.703 10.9875 194.912 10.5593 194.788 10.6161Z" fill="white"/>
<path d="M165.323 9.75641C165.051 8.72799 164.471 7.7011 163.487 7.1915C163.522 7.20224 163.558 7.21452 163.595 7.21913C163.092 6.75404 162.07 7.29127 161.454 6.99503C160.844 6.70185 160.54 6.43477 159.878 6.79702C159.836 7.25136 159.995 7.17922 160.158 7.53226C160.267 7.76711 160.161 8.16773 160.099 8.42867C159.984 8.91065 159.812 9.47091 159.61 9.91451C159.483 10.1923 159.258 10.4164 159.202 10.7019C159.341 10.8907 159.532 10.7756 159.719 10.6989C159.402 11.3159 159.442 12.0374 159.093 12.6836C158.458 13.8593 157.49 15.1733 156.491 16.082C155.897 16.6223 155.063 16.8172 154.466 17.359C153.99 17.7919 153.657 18.2017 152.99 18.1895C153.56 17.8717 153.88 17.2516 154.428 16.8617C155.368 16.1909 156.047 15.1288 156.871 14.3152C157.286 13.9039 157.683 13.425 158.034 12.9368C158.35 12.4978 158.555 11.8225 158.928 11.4418C158.206 11.7964 157.642 12.3259 157.171 12.9967C156.479 13.9852 155.692 15.0075 154.821 15.8548C154.398 16.2662 153.911 16.501 153.501 16.9569C153.262 17.2224 152.729 18.3767 152.34 18.2647C151.811 18.1127 151.743 17.4312 151.898 16.9385C152.036 16.4995 152.332 16.0344 152.517 15.6107C152.715 15.1548 152.969 14.7036 153.23 14.283C153.557 13.755 154.463 12.3551 154.213 11.7472C154.274 11.7749 154.339 11.7872 154.404 11.781C154.105 11.5907 154.118 10.6758 154.101 10.3213C154.065 9.64436 154.233 9.13168 154.503 8.54994C154.638 8.25676 155.079 7.12089 154.624 7.14238C154.416 7.15159 154.238 7.61208 154.033 7.44784C153.949 7.3803 153.965 6.81544 153.95 6.69417C153.897 6.24597 153.766 5.73943 153.463 5.40021C153.356 5.69645 153.286 6.03721 153.013 6.21527C152.748 6.38718 152.41 6.33653 152.122 6.49002C151.951 6.58212 151.873 6.74943 151.711 6.63585C151.594 6.55603 151.599 6.24597 151.588 6.12778C151.553 5.70106 151.635 5.41709 151.808 5.0794C151.565 5.01954 151.044 4.99651 150.913 5.11317C150.124 5.81311 150.094 7.23448 149.49 8.11861C149.354 8.31662 149.183 8.46244 149.048 8.66352C148.867 8.93367 148.971 9.13475 148.556 9.0534C148.139 8.97051 147.711 8.42407 147.346 8.16773C146.818 7.79627 146.291 7.3189 145.66 7.1915C144.856 7.02879 144.05 6.85688 143.263 6.56677C141.511 5.91902 139.657 5.59515 137.768 5.69799C136.807 5.75018 135.997 5.93284 135.076 6.21527C134.672 6.3396 134.273 6.47621 133.872 6.60208C133.352 6.76478 132.725 6.79702 132.229 7.01651C131.563 7.31123 131.118 8.08945 130.749 8.70036C130.549 9.03191 130.363 9.41258 130.114 9.70883C129.806 10.0726 129.515 10.2967 129.408 10.8063C129.215 11.735 129.66 12.5577 129.305 13.4557C128.935 14.3874 128.181 15.0827 127.807 16.0006C127.51 16.7251 127.829 17.6676 127.798 18.4212C127.74 19.8779 127.773 21.0429 128.462 22.3492C128.829 23.043 129.195 23.6232 129.663 24.2356C129.96 24.624 130.156 25.0799 130.494 25.416C130.947 25.8627 131.594 26.2526 132.145 26.578C132.749 26.9372 133.402 27.3009 134.052 27.5527C135.812 28.2327 137.676 28.3278 139.451 27.8658C141.86 27.238 143.497 25.525 145.295 23.4175C145.771 22.8588 146.639 21.7843 147.383 21.2118C147.393 21.2548 147.408 21.3054 147.393 21.2317C148.089 21.6078 147.925 22.3737 148.094 23.0875C148.513 24.8481 149.709 26.0116 151.495 26.0361C153.032 26.0561 154.404 25.5511 155.836 25.0952C156.399 24.9156 157.658 24.6455 157.664 23.8918C157.723 23.8734 157.855 23.8734 157.914 23.8933C157.976 24.0514 158.02 24.2188 158.07 24.3845C158.212 24.8573 158.243 25.1766 158.667 25.4283C159.002 25.6263 159.341 25.878 159.687 26.0423C160.415 26.3876 161.399 26.2157 161.93 25.6202C162.537 24.9402 162.624 24.0668 162.79 23.1827C163.052 21.7797 163.35 20.9478 163.502 19.9071C163.642 18.9447 163.969 18.036 164.177 17.0966C164.398 16.0927 164.545 15.0459 164.852 14.0527C165.261 12.7342 165.678 11.0949 165.323 9.75641ZM130.41 11.0166C130.26 11.1394 130.487 12.1939 129.906 12.0143C129.906 11.7457 130.013 10.8278 130.41 11.0166C130.415 11.012 130.419 11.0074 130.425 11.0043L130.462 11.0427C130.443 11.032 130.427 11.0258 130.41 11.0166ZM132.298 8.11708H132.261C132.316 7.916 132.497 7.62129 132.663 7.48314C132.948 7.24522 133.153 7.411 133.493 7.38183C133.421 7.59519 133.3 7.88837 133.113 8.02959C132.839 8.2368 132.616 8.09252 132.298 8.11708ZM140.585 18.6254C139.82 19.3054 139.085 20.145 138.164 20.6055C137.336 21.0184 136.471 21.1565 135.558 21.1135C134.737 21.0752 133.839 20.8419 132.851 20.4428C132.743 20.607 132.792 20.5241 132.842 20.4397C132.845 20.4412 132.848 20.4428 132.851 20.4428C132.864 20.4228 132.879 20.3998 132.898 20.3722C132.905 20.3737 132.851 20.3783 132.859 20.3768C132.867 19.2916 133.327 18.7159 133.835 17.7965C134.234 17.0735 135.015 15.9945 135.633 15.4557C136.554 14.6514 137.193 14.0113 138.331 13.5831C139.293 13.2208 140.926 12.9553 141.928 13.1149C142.803 13.253 143.501 13.3497 144.462 14.1157C143.703 16.0221 142.031 17.3406 140.585 18.6254ZM163.281 7.10247C163.338 7.13778 163.399 7.16387 163.461 7.18536C163.422 7.18843 163.256 7.10554 163.281 7.10247Z" fill="white"/>
<path d="M137.405 20.076C138.021 20.2111 138.992 19.3361 139.372 18.8035C139.514 18.604 139.629 18.3783 139.735 18.1558C139.125 18.6255 138.457 18.9631 137.877 19.4835C137.672 19.6677 137.575 19.7951 137.405 20.076Z" fill="white"/>
<path d="M8.36242 28.1207C8.46851 28.2174 8.58198 28.3126 8.71754 28.3509C8.91353 28.4062 9.11982 28.3356 9.32022 28.3018C10.5064 28.1054 11.5644 29.2136 12.7654 29.2443C12.8744 29.2474 12.9849 29.2397 13.0851 29.1998C13.3047 29.1138 13.6318 28.7899 13.7541 28.5827C14.7871 26.8237 15.7184 25.3793 16.8279 23.6724C18.2823 21.4375 19.7529 19.0614 21.334 16.9217C22.0797 17.5464 22.0841 18.6285 21.9515 19.6155C21.7599 21.0446 21.6568 22.6256 21.9898 24.027C22.1519 24.7085 22.9063 25.8075 23.1819 26.4476C23.7212 27.7017 23.9363 28.4246 24.8691 29.3978C25.1977 29.7401 25.5572 30.067 25.9919 30.2374C26.7361 30.5275 27.5819 30.308 28.2803 29.9135C29.1615 29.4177 29.5446 28.42 30.1488 27.5159C30.7986 26.5443 31.1729 26.8759 32.4033 24.314C33.3317 22.38 33.8386 20.8987 34.8936 19.1642C35.1382 19.3177 35.3047 19.5971 35.3298 19.8918C35.626 19.1121 35.5877 18.2018 35.2252 17.4528C35.735 16.4658 36.8151 15.8764 37.4885 15.0644C37.4325 15.201 37.3707 15.3391 37.2911 15.4727C37.0597 15.8672 36.1962 16.9846 36.5484 17.5096C36.5145 17.574 36.6707 17.5172 36.6044 17.5525C36.3893 18.0529 36.4011 18.6086 36.2964 19.1366C36.2581 19.3346 36.2611 19.7015 36.1255 19.8657C35.9443 20.0852 35.6879 19.9486 35.4771 20.0438C36.096 20.4966 36.0282 21.4099 36.1284 22.0868C36.2345 22.7944 36.2625 23.5358 36.3627 24.2449C36.5764 25.7492 37.3751 27.2197 38.6703 28.0685C40.4342 29.2228 42.8729 28.8345 44.7944 28.3694C45.7846 28.1299 46.9001 27.7615 47.7709 27.2013C48.8805 26.486 49.8811 25.6157 50.8919 24.7499C51.3929 24.3217 51.6184 23.7231 52.0781 23.2472C52.6793 22.624 53.2658 22.0653 53.7182 21.3255C54.1308 20.6485 54.9825 20.0714 55.1902 19.2978C55.3774 18.604 55.5616 17.904 55.7635 17.2164C55.8415 16.9524 55.9241 16.6914 55.9432 16.4167C55.9211 16.4888 55.8975 16.5594 55.8695 16.63C55.8563 16.2079 56.2969 15.5417 56.3897 15.135C56.4811 14.7298 56.4973 14.3153 56.5194 13.8901C56.5621 13.0705 56.4295 12.3843 56.1097 11.6829C55.8224 11.052 55.4083 10.4503 55.0694 9.85167C54.648 9.10722 54.1632 8.45793 53.6032 7.82399C53.3601 7.5477 53.1656 7.18852 52.9254 6.92604C52.6661 6.64361 52.3168 6.68506 52.0103 6.49012C51.6478 6.25834 51.4091 5.86693 51.0805 5.60905C50.7077 5.31434 50.217 5.05954 49.7971 4.85386C49.1841 4.55454 48.689 4.45784 48.02 4.42714C47.4806 4.40258 47.0268 4.18462 46.5405 3.95591C46.013 3.70878 45.6328 3.32197 45.039 3.32351C44.8828 3.32351 44.2831 3.345 44.2197 3.57063C44.1666 3.76097 44.5321 4.08024 44.563 4.28592C44.6485 4.85079 43.7423 5.21457 43.3871 5.54459C42.8729 6.02349 42.4131 6.6344 41.9725 7.1701C41.0442 8.2983 40.3899 9.80869 39.6134 11.0597C39.4867 11.2638 39.3673 11.468 39.2642 11.6783C39.2111 11.6905 39.161 11.6905 39.1124 11.6829C39.0844 11.4941 39.1197 11.2623 39.1861 11.0842C39.5427 10.1188 39.8978 9.1548 40.2544 8.18931C40.0923 8.32285 39.9302 8.45486 39.7681 8.5884C39.4808 7.75953 39.6208 6.78483 40.1291 6.08029C40.2308 5.93907 40.3516 5.79325 40.3546 5.61826C40.3605 5.29592 39.9803 5.09638 39.9317 4.77711C39.8536 4.27364 40.6242 3.79781 40.3281 3.39104C40.2205 3.24522 40.0171 3.21145 39.8993 3.07331C39.7239 2.86762 39.7976 2.49923 39.4145 2.42709C39.1949 2.38565 38.9694 2.47468 38.8133 2.64045C36.905 4.67427 35.5965 7.31439 34.2497 9.79641C33.6087 10.9799 33.1475 12.1848 32.2412 13.158C31.8876 13.5371 31.5045 13.8917 31.198 14.3122C30.8355 14.8096 30.5894 15.3852 30.3227 15.9454C29.5535 17.5679 28.5308 19.1167 27.4183 20.5135C27.3741 20.5687 27.2886 20.5319 27.2931 20.4597C27.3697 18.7375 27.1162 17.3607 27.0765 15.7735C27.0396 14.3353 27.2341 12.6714 27.2813 11.0766C27.299 10.4657 27.0278 8.89079 26.8716 8.30137C26.7051 7.67203 26.434 7.3236 26.0523 6.80632C25.5823 6.17085 25.1638 5.66278 24.6171 5.09791C24.4447 4.91986 24.0586 4.70036 23.817 4.66352C23.1671 4.56682 22.8503 5.51082 22.2521 5.79018C22.087 5.86693 21.9028 5.88995 21.7304 5.94367C21.3694 5.76715 21.0099 5.59063 20.6488 5.41411C20.5678 5.37421 20.4779 5.33276 20.3895 5.35425C20.3306 5.36807 20.2819 5.40951 20.2363 5.44788C20.1523 5.51849 20.0683 5.5891 19.9843 5.65971C19.9091 5.72264 19.8325 5.78711 19.7809 5.87C19.6645 6.05419 19.6851 6.29518 19.7087 6.51468C19.9916 6.25987 20.4057 6.08182 20.749 6.05419C20.9598 6.03731 21.1911 6.04652 21.3709 6.14782C21.1926 6.31974 21.0732 6.56533 20.9259 6.77562C18.0598 10.8601 16.044 14.1987 13.346 17.9056C12.0728 19.6539 10.7776 21.7506 9.50442 23.499C8.77649 24.4982 8.02056 25.5404 6.92719 26.0685C7.25431 26.8528 7.74795 27.5574 8.36242 28.1207ZM44.9064 4.88609L44.8032 4.92139C44.6529 4.82776 44.6735 5.18694 44.7295 5.34197C44.5498 5.44021 44.395 5.53998 44.1946 5.44942C43.9883 5.0841 44.6809 4.88455 44.9064 4.88609ZM40.6729 19.4267C40.9911 18.779 41.3772 18.1128 41.8178 17.5495C42.4927 16.6884 43.3179 15.9362 44.009 15.0905C44.2344 14.8126 44.4658 14.5317 44.6603 14.2416C44.7295 14.1388 44.7369 14.0298 44.8032 13.9592C45.0405 13.4281 45.5488 13.0183 45.8966 12.5563C46.2193 12.1265 46.5302 11.6506 46.9885 11.3529C47.2537 11.1809 47.5897 11.0029 47.9065 11.0474C47.9566 11.4526 47.7444 11.6245 48.2705 11.4511C48.5431 11.3621 48.8584 11.2347 49.1045 11.1042C48.851 10.92 48.4547 10.8003 48.3589 10.4795C49.2975 10.349 49.8648 11.1195 50.3437 11.8686C50.5486 12.1879 50.7107 12.4289 50.9892 12.6821C51.1748 12.851 51.3797 12.9707 51.4916 13.2132C51.9145 14.1342 50.8904 14.808 50.6429 15.6078C50.4557 16.2141 50.3614 16.9478 50.0947 17.4973C49.7705 18.1619 48.9129 18.5426 48.4237 19.086C47.3819 20.2449 46.1294 21.0737 44.7531 21.8059C44.5586 21.9103 44.0046 22.2464 43.7791 22.182C43.3577 22.0592 43.8601 21.5895 44.034 21.416C44.5115 20.9433 45.0257 20.5457 45.565 20.1528C45.7949 19.9854 46.3386 19.6754 46.3696 19.3745C45.9703 19.2763 45.6977 19.4344 45.3838 19.7168C45.0139 20.0514 44.619 20.3231 44.2226 20.6224C43.5021 21.1689 42.9274 21.6232 42.0683 21.9394C41.5717 22.1221 40.4651 22.4306 39.9862 22.0653C39.497 21.6892 40.4592 19.8611 40.6729 19.4267ZM38.2165 12.5962C38.3152 12.3859 38.5495 12.2477 38.7661 12.2262C38.993 12.3306 39.052 12.5501 38.9739 12.8633C38.853 13.3422 38.4051 13.5785 38.0897 13.907C38.0676 13.93 38.05 13.9546 38.0293 13.9792C38.0352 13.9469 38.0455 13.9162 38.05 13.884C38.1118 13.4527 38.0308 12.9876 38.2165 12.5962Z" fill="white"/>
<path d="M29.5358 14.1296C29.6109 13.9547 30.1355 12.7697 30.3124 12.7835C30.1473 12.7712 29.9838 12.7574 29.8187 12.7451C29.7716 13.1089 29.5579 13.422 29.3914 13.7459C29.1718 14.1742 28.9199 15.5602 29.5358 14.1296Z" fill="white"/>
<path d="M32.6037 8.10469C32.8188 7.96654 32.9574 7.7102 32.9618 7.44772L32.8748 7.37865C32.9146 7.38019 32.8851 7.30958 32.8454 7.30344C32.7319 7.28655 32.6273 7.38326 32.589 7.49531C32.5506 7.60736 32.5639 7.73016 32.5772 7.84835C32.5845 7.93431 32.5934 8.02026 32.6037 8.10469Z" fill="white"/>
<path d="M36.1594 2.43303C36.5897 2.01399 37.2793 1.80063 37.7744 2.11069C37.773 2.11069 37.7715 2.11223 37.77 2.11223L37.7833 2.1199C37.7641 2.13525 37.7479 2.15674 37.742 2.18284C37.7037 2.32559 37.6006 2.48369 37.7332 2.53741C37.8658 2.59113 38.2268 2.56504 38.3683 2.54662C38.4316 2.53895 38.5024 2.52513 38.5392 2.47294C38.5952 2.39313 38.5377 2.278 38.467 2.212C38.2946 2.05083 38.0338 2.00632 37.8201 2.09381C37.6742 1.75612 37.4665 1.39694 37.1202 1.36317C36.8903 1.34015 36.6752 1.47522 36.491 1.62104C35.5376 2.37471 34.375 4.32103 34.0449 5.5275C34.6594 4.67407 34.9894 4.31182 35.1412 4.04167C35.4551 3.48601 35.7071 2.8751 36.1594 2.43303Z" fill="white"/>
<path d="M10.2279 20.2263C10.0245 20.3737 9.83297 20.2985 9.63404 20.3767C9.44542 20.4504 9.36438 20.5962 9.23176 20.7912C8.94589 21.2148 8.67623 21.6508 8.4272 22.099C7.94683 22.9601 7.53718 23.8642 7.20269 24.7974C7.14964 24.9448 7.09954 25.1121 7.16437 25.2533C7.98072 23.4543 9.0122 21.7597 10.2279 20.2263Z" fill="white"/>
<path d="M12.7286 16.5038C12.8877 16.1615 13.0881 15.8392 13.3254 15.5491C13.2178 15.4754 13.0778 15.5614 12.982 15.6504C12.705 15.9083 12.4707 16.2137 12.2909 16.553C12.4368 16.5545 12.5827 16.556 12.7286 16.5576V16.5038Z" fill="white"/>
<path d="M13.558 15.2039C13.6685 15.2023 13.894 14.9076 13.9662 14.8278C14.1282 14.6452 14.2668 14.4425 14.4038 14.2399C14.8621 13.5645 15.3262 12.88 15.6003 12.1033C15.285 12.203 15.0728 12.5008 14.8827 12.7802C14.4126 13.4694 13.9441 14.1586 13.474 14.8478C13.3664 15.0074 13.337 15.207 13.558 15.2039Z" fill="white"/>
<path d="M16.4876 10.5176C16.4876 10.5852 16.4876 10.6527 16.4876 10.7202L16.4861 10.4685C16.184 10.7847 15.9792 11.2022 15.9114 11.6427C16.2945 11.434 16.5332 10.9674 16.4876 10.5176Z" fill="white"/>
<path d="M17.7681 8.69073C17.1375 8.09977 17.0048 9.87264 16.9282 10.109C17.0402 9.76366 18.2632 9.15428 17.7681 8.69073Z" fill="white"/>
<path d="M18.6271 7.65796C18.3707 7.80685 18.1673 8.05244 18.0642 8.33948C18.0995 8.33794 18.1334 8.33027 18.1658 8.32106C18.3383 8.11537 18.493 7.89434 18.6271 7.65796Z" fill="white"/>
<path d="M18.185 8.31479C18.2528 8.29024 18.3162 8.25033 18.3648 8.19507L18.185 8.31479Z" fill="white"/>
<path d="M18.185 8.31519C18.1791 8.31672 18.1717 8.31979 18.1659 8.32286C18.1629 8.32593 18.16 8.33054 18.157 8.33514L18.185 8.31519Z" fill="white"/>
<path d="M19.6482 6.56982C19.6659 6.5514 19.6865 6.53451 19.7057 6.51763C19.6998 6.50228 19.6762 6.52837 19.6482 6.56982Z" fill="white"/>
<path d="M19.526 6.71128C19.1988 6.70054 18.8997 7.03209 18.9307 7.37285C19.0412 7.37132 19.1546 7.36825 19.2578 7.32527C19.3609 7.28229 19.4523 7.19019 19.4641 7.07507C19.4744 6.97069 19.4243 6.84943 19.4891 6.77115C19.4994 6.80952 19.5864 6.65756 19.6468 6.57007C19.6026 6.61458 19.5613 6.66217 19.526 6.71128Z" fill="white"/>
<path d="M40.6331 8.11248C40.6802 8.04802 40.6847 7.96206 40.6876 7.88224C40.692 7.75023 40.6964 7.61669 40.7009 7.48469L40.7436 7.33887C40.5491 7.50311 40.4253 7.75637 40.4121 8.01732C40.4106 8.05723 40.4106 8.1002 40.4342 8.13397C40.4798 8.19691 40.5859 8.17542 40.6331 8.11248Z" fill="white"/>
<path d="M41.4479 6.84145C41.5702 6.62809 41.5643 6.36715 41.6955 6.09546C41.2401 6.33952 40.8791 6.9182 40.916 7.43548C41.1046 7.30808 41.3286 7.04713 41.4479 6.84145Z" fill="white"/>
<path d="M47.5676 11.7932C47.3451 11.9237 46.0204 12.6083 46.0675 12.7833C46.262 12.5791 46.6879 12.5545 46.9413 12.4318C47.2625 12.2783 47.4158 12.1094 47.5676 11.7932Z" fill="white"/>
<path d="M48.3367 17.7107C48.6683 17.3607 48.7523 17.0951 48.8274 16.6316C48.5946 16.7252 48.2675 16.9478 48.2174 17.0199C47.8696 17.1719 47.4467 18.1865 47.4703 18.5472C47.8062 18.4214 48.0921 17.9701 48.3367 17.7107Z" fill="white"/>
<path d="M63.249 15.9868C63.2181 16.0022 63.2741 16.0559 63.2903 16.019C63.3065 15.9822 63.2814 15.9392 63.2579 15.9101C62.9455 15.5186 62.6154 15.1503 62.2676 14.8095C62.4563 14.372 62.8703 14.1096 63.2608 14.1802C63.2151 13.9883 63.1547 13.7734 63.0088 13.692C62.8615 13.6092 62.6935 13.7013 62.5329 13.735C62.3752 13.7688 62.2043 13.7412 62.0746 13.623C61.9449 13.5048 61.998 13.2515 61.998 13.0504C61.998 12.8294 62.1984 12.9783 62.3472 13.0504C62.3914 12.9998 62.387 12.6636 62.3472 12.6099C62.3074 12.5562 62.1778 12.5562 62.1218 12.5347C61.9243 12.4564 61.8462 12.4687 61.6488 12.3904C61.8241 12.1694 61.8241 11.9499 61.911 11.8394C41.1252 11.8394 22.7854 15.3682 3.05466 16.039C2.82773 16.4887 2.39893 16.7359 2.18232 17.1948C2.03791 17.5003 2.00255 17.8733 1.85962 18.1803C1.45439 19.0644 0.335969 19.1365 0 20.0667C20.5869 20.2095 37.0214 15.2577 63.249 15.9868Z" fill="#E40521"/>
</g>
<defs>
<clipPath id="clip0">
<rect width="200" height="33" fill="white"/>
</clipPath>
</defs>
</svg>
