<svg width="29" height="29" viewBox="0 0 29 29" fill="none" xmlns="http://www.w3.org/2000/svg">
<path fill-rule="evenodd" clip-rule="evenodd" d="M24.2073 8.82025C24.1063 8.79184 24.0052 8.76344 23.9042 8.74451L21.5304 8.32793C20.4597 8.13858 19.3991 7.80721 18.4192 7.35276L16.4596 6.4344C16.3586 6.38706 16.2676 6.34919 16.1666 6.32078C15.3989 6.08409 14.5908 6.25451 14.0151 6.71843C14.3282 6.86991 14.5807 7.11607 14.7423 7.41903C15.0454 7.20128 15.4494 7.12554 15.8333 7.24862C15.8442 7.25272 15.8556 7.25682 15.8673 7.26102L15.8674 7.26104C15.9096 7.27621 15.9554 7.29265 15.9949 7.31489L17.9546 8.23325C19.0253 8.73504 20.1769 9.09481 21.3385 9.29363L23.7123 9.71021L23.7341 9.71421C23.7796 9.72251 23.8305 9.73179 23.8739 9.74808C24.5002 9.93743 24.8336 10.5718 24.6214 11.1588L22.8133 16.2524C21.9446 18.714 20.0051 20.74 17.4899 21.8099L15.5201 22.6525C15.2979 22.7472 15.0555 22.7567 14.8333 22.6904C14.6009 22.6146 14.409 22.4726 14.2979 22.2643L14.2171 22.1223L14.0353 22.3969C13.8938 22.6146 13.6918 22.7756 13.4696 22.8892C13.712 23.23 14.0757 23.4857 14.4999 23.6182C14.9747 23.7697 15.4999 23.7413 15.9545 23.5425L17.9243 22.6998C20.7021 21.5164 22.8537 19.2725 23.8133 16.5553L25.6215 11.4617C26.0053 10.3729 25.379 9.18002 24.2073 8.82025ZM9.44986 7.75017L11.662 6.86021C12.6116 6.47204 13.6924 6.97383 13.9752 7.91112L15.4904 13.0899C16.2581 15.7314 15.8238 18.5528 14.2884 20.8724L13.157 22.586C12.753 23.2109 11.8944 23.4192 11.2075 23.0783L9.17712 22.0747C6.62149 20.7966 4.71234 18.5906 3.94464 15.9776L2.45975 10.884C2.18702 9.9372 2.89411 8.98097 3.93454 8.85789L6.14673 8.5928C7.28818 8.45078 8.39932 8.17622 9.44986 7.75017ZM7.64173 13.2225C6.90433 12.8248 6.16693 13.0142 5.66187 13.4402C4.80326 14.2545 5.60126 15.3716 6.6619 15.2391C6.98285 15.2342 7.26135 15.0827 7.53547 14.9335L7.53548 14.9335C7.79626 14.7916 8.05308 14.6519 8.33872 14.6426C8.55084 14.5953 8.68216 14.387 8.62155 14.1882C8.54347 13.6678 8.15242 13.4756 7.80681 13.3057C7.75003 13.2778 7.69447 13.2505 7.64173 13.2225ZM7.56091 18.6285H7.55081C9.91452 20.4652 13.3187 19.9351 14.0258 16.9717C12.1671 18.0889 9.86401 19.0546 7.56091 18.6285ZM12.0351 13.792C12.3524 13.7885 12.675 13.7849 12.955 13.6391C13.9348 13.232 14.0157 11.8875 12.8237 11.6035C12.1671 11.471 11.4297 11.6603 11.0055 12.3609C10.9758 12.41 10.9433 12.4597 10.9101 12.5106C10.7062 12.8232 10.4751 13.1776 10.6923 13.658C10.7529 13.8568 10.9752 13.9799 11.1873 13.9231C11.438 13.7987 11.7342 13.7954 12.0351 13.792ZM19.8319 13.5414C19.4758 13.6958 19.0695 13.8719 18.9648 14.3872C18.9507 14.4268 18.9442 14.4669 18.9445 14.506C18.9433 14.6603 19.0539 14.8069 19.2173 14.8605C19.5023 14.8881 19.7515 15.039 20.0044 15.1921C20.2713 15.3538 20.5422 15.5178 20.8638 15.5422C21.6798 15.6805 22.3762 15.0737 22.2815 14.3984C22.2557 14.1929 22.1566 13.9809 21.9649 13.7812C21.48 13.3363 20.7628 13.109 19.9951 13.4688C19.9429 13.4933 19.888 13.5171 19.8319 13.5414ZM16.7814 12.605C16.967 12.9241 17.1756 13.2829 16.9338 13.7524C16.8833 13.8849 16.7621 13.9796 16.6206 14.008C16.56 13.6388 16.4691 13.2695 16.3681 12.9098L16.0449 11.7831C16.2974 11.9251 16.5297 12.1334 16.6914 12.4459C16.7192 12.498 16.7499 12.5509 16.7814 12.6049L16.7814 12.605ZM16.4299 17.871C17.7027 18.1551 18.5815 18.9409 19.026 19.7551H19.0058C18.2482 19.045 17.2886 18.619 16.2784 18.3728C16.339 18.2119 16.3895 18.0414 16.4299 17.871Z" fill="#E50012"/>
</svg>
